<svg width="22" height="18" viewBox="0 0 22 18" fill="none" xmlns="http://www.w3.org/2000/svg">
<path d="M19.8 0H2.2C0.99 0 0.011 1.0125 0.011 2.25L0 15.75C0 16.9875 0.99 18 2.2 18H19.8C21.01 18 22 16.9875 22 15.75V2.25C22 1.0125 21.01 0 19.8 0ZM19.36 4.78125L11.583 9.75375C11.231 9.97875 10.769 9.97875 10.417 9.75375L2.64 4.78125C2.365 4.60125 2.2 4.2975 2.2 3.97125C2.2 3.2175 3.003 2.7675 3.63 3.16125L11 7.875L18.37 3.16125C18.997 2.7675 19.8 3.2175 19.8 3.97125C19.8 4.2975 19.635 4.60125 19.36 4.78125Z" fill="#1E3A8A"/>
</svg>
