<svg width="16" height="19" viewBox="0 0 16 19" fill="none" xmlns="http://www.w3.org/2000/svg">
<path d="M7.7027 0C3.65878 0 0 3.10913 0 7.91767C0 10.9882 2.35895 14.5994 7.06723 18.761C7.43311 19.0797 7.98193 19.0797 8.3478 18.761C13.0465 14.5994 15.4054 10.9882 15.4054 7.91767C15.4054 3.10913 11.7466 0 7.7027 0ZM7.7027 9.6557C6.64358 9.6557 5.77703 8.78669 5.77703 7.72456C5.77703 6.66243 6.64358 5.79342 7.7027 5.79342C8.76182 5.79342 9.62838 6.66243 9.62838 7.72456C9.62838 8.78669 8.76182 9.6557 7.7027 9.6557Z" fill="#1E3A8A"/>
</svg>
