<svg width="33" height="33" viewBox="0 0 33 33" fill="none" xmlns="http://www.w3.org/2000/svg">
<rect width="32.9955" height="32.9923" rx="16.4962" fill="#00685D" fill-opacity="0.1"/>
<path d="M10.4 22.5923C9.65 21.8423 9.0625 20.9756 8.6375 19.9923C8.2125 19.009 8 17.9923 8 16.9423C8 15.8923 8.2 14.8548 8.6 13.8298C9 12.8048 9.65 11.8423 10.55 10.9423C11.1333 10.359 11.8542 9.85897 12.7125 9.44231C13.5708 9.02564 14.5875 8.69647 15.7625 8.45481C16.9375 8.21314 18.2792 8.06731 19.7875 8.01731C21.2958 7.96731 22.9833 8.02564 24.85 8.19231C24.9833 9.95897 25.025 11.584 24.975 13.0673C24.925 14.5506 24.7875 15.8881 24.5625 17.0798C24.3375 18.2715 24.0208 19.3131 23.6125 20.2048C23.2042 21.0965 22.7 21.8423 22.1 22.4423C21.2167 23.3256 20.2792 23.9715 19.2875 24.3798C18.2958 24.7881 17.2833 24.9923 16.25 24.9923C15.1667 24.9923 14.1083 24.7798 13.075 24.3548C12.0417 23.9298 11.15 23.3423 10.4 22.5923ZM13.2 22.1923C13.6833 22.4756 14.1792 22.6798 14.6875 22.8048C15.1958 22.9298 15.7167 22.9923 16.25 22.9923C17.0167 22.9923 17.775 22.8381 18.525 22.5298C19.275 22.2215 19.9917 21.7256 20.675 21.0423C20.975 20.7423 21.2792 20.3215 21.5875 19.7798C21.8958 19.2381 22.1625 18.5298 22.3875 17.6548C22.6125 16.7798 22.7833 15.7215 22.9 14.4798C23.0167 13.2381 23.0333 11.759 22.95 10.0423C22.1333 10.009 21.2125 9.99647 20.1875 10.0048C19.1625 10.0131 18.1417 10.0923 17.125 10.2423C16.1083 10.3923 15.1417 10.634 14.225 10.9673C13.3083 11.3006 12.5583 11.759 11.975 12.3423C11.225 13.0923 10.7083 13.834 10.425 14.5673C10.1417 15.3006 10 16.009 10 16.6923C10 17.6756 10.1875 18.5381 10.5625 19.2798C10.9375 20.0215 11.2667 20.5423 11.55 20.8423C12.25 19.509 13.175 18.2298 14.325 17.0048C15.475 15.7798 16.8167 14.7756 18.35 13.9923C17.15 15.0423 16.1042 16.2298 15.2125 17.5548C14.3208 18.8798 13.65 20.4256 13.2 22.1923Z" fill="#1E3A8A"/>
</svg>
