<svg width="15" height="24" viewBox="0 0 15 24" fill="none" xmlns="http://www.w3.org/2000/svg">
<path d="M7.5 21.2727C7.80357 21.2727 8.05821 21.168 8.26393 20.9585C8.46893 20.7498 8.57143 20.4909 8.57143 20.1818C8.57143 19.8727 8.46893 19.6138 8.26393 19.4051C8.05821 19.1956 7.80357 19.0909 7.5 19.0909C7.19643 19.0909 6.94214 19.1956 6.73714 19.4051C6.53143 19.6138 6.42857 19.8727 6.42857 20.1818C6.42857 20.4909 6.53143 20.7498 6.73714 20.9585C6.94214 21.168 7.19643 21.2727 7.5 21.2727ZM2.14286 16.3636H12.8571V5.45455H2.14286V16.3636ZM2.14286 24C1.55357 24 1.04929 23.7865 0.63 23.3596C0.21 22.932 0 22.4182 0 21.8182V2.18182C0 1.58182 0.21 1.068 0.63 0.640364C1.04929 0.213455 1.55357 0 2.14286 0H12.8571C13.4464 0 13.9511 0.213455 14.3711 0.640364C14.7904 1.068 15 1.58182 15 2.18182V21.8182C15 22.4182 14.7904 22.932 14.3711 23.3596C13.9511 23.7865 13.4464 24 12.8571 24H2.14286ZM2.14286 3.27273H12.8571V2.18182H2.14286V3.27273ZM2.14286 18.5455V21.8182H12.8571V18.5455H2.14286Z" fill="#1E3A8A"/>
</svg>
